<svg xmlns="http://www.w3.org/2000/svg" width="16" height="16" fill="none"><path stroke="#7c3aed" stroke-linecap="round" stroke-linejoin="round" stroke-width="1.333" d="M10 14.667V12a3.2 3.2 0 0 0-.667-2.333c2 0 4-1.334 4-3.667a3.6 3.6 0 0 0-.666-2.333 4.9 4.9 0 0 0 0-2.334s-.667 0-2 1a14.4 14.4 0 0 0-5.334 0c-1.333-1-2-1-2-1-.2.767-.2 1.567 0 2.334A3.6 3.6 0 0 0 2.667 6c0 2.333 2 3.667 4 3.667A3.14 3.14 0 0 0 6 12v2.667"/><path stroke="#7c3aed" stroke-linecap="round" stroke-linejoin="round" stroke-width="1.333" d="M6 12c-3.007 1.333-3.333-1.333-4.667-1.333"/></svg>